<svg version="1.2" xmlns="http://www.w3.org/2000/svg" viewBox="0 0 48 63" width="48" height="63"><style>.a{fill:#231f20}</style><path class="a" d="m46.8 44.2q-1.3 2.9-3.1 5.5-2.4 3.4-3.9 4.7-2.4 2.2-5.1 2.2-1.9 0-4.6-1.1-2.8-1.1-5-1.1-2.5 0-5.2 1.1-2.8 1.1-4.5 1.2-2.6 0.1-5.1-2.3-1.7-1.4-4.1-4.9-2.7-3.7-4.4-8.6-1.8-5.3-1.8-10.3 0-5.7 2.5-9.8 1.9-3.3 5.1-5.3 3.3-1.9 7-1.9 2.1 0 5.4 1.2 3.3 1.3 4.3 1.3 0.7 0 4.7-1.5 3.9-1.4 6.5-1.1 7.2 0.5 10.7 5.6-6.4 3.9-6.3 10.9 0.1 5.4 3.9 9 1.8 1.6 4 2.6-0.5 1.3-1 2.6zm-11-43.1q0 4.3-3.1 8c-2.5 2.9-5.5 4.6-8.8 4.3q0-0.5 0-1.1c0-2.7 1.2-5.6 3.3-8q1.5-1.8 4-3 2.4-1.2 4.6-1.3 0 0.6 0 1.1z"/></svg>