<svg version="1.2" xmlns="http://www.w3.org/2000/svg" viewBox="0 0 108 24" width="108" height="24"><style>.a{fill:#283978}.b{fill:none;stroke:#283978;stroke-width:.4}.c{fill:#ef2d47}</style><path fill-rule="evenodd" class="a" d="m71.8 12.8v2.1c0 0.7 0.1 1 0.4 1.3 0.2 0.1 0.7 0.2 0.8 0.2 0.4 0.8-0.2 1-1.9 1-1.7 0-2.4-0.2-2.1-1 0.2 0 0.4-0.1 0.6-0.2 0.3-0.3 0.4-0.6 0.4-1.3v-3.5c0-0.8-0.3-1.1-1.2-0.9-0.3-0.9 0.6-1.4 1.2-1.5q0.3-0.1 0.6-0.1c0.7 0 1 0.5 1.2 1.3 0.5-0.9 1.2-1.4 2-1.4 0.6 0 1.3 0.4 1.3 1.2 0 0.6-0.4 1.1-1.1 1.1-0.5 0-1-0.3-1-0.9-0.5 0.1-1.2 0.6-1.2 2.6zm-41 0v2.1c0 0.7 0.1 1 0.4 1.3 0.2 0.1 0.6 0.2 0.8 0.2 0.3 0.8-0.3 1-2 1-1.7 0-2.4-0.2-2-1 0.1 0 0.4-0.1 0.6-0.2 0.3-0.3 0.4-0.6 0.4-1.3v-3.5c0-0.8-0.4-1.1-1.2-0.9-0.4-0.9 0.6-1.4 1.2-1.5q0.3-0.1 0.5-0.1c0.8 0 1.1 0.5 1.3 1.3 0.4-0.9 1.2-1.4 2-1.4 0.6 0 1.3 0.4 1.3 1.2 0 0.6-0.4 1.1-1.1 1.1-0.5 0-1-0.3-1-0.9-0.5 0.1-1.2 0.6-1.2 2.6zm15.4-3.8h2.2c0.2 0.6-0.1 1.1-0.6 1.2q-0.2 0-0.5 0c-0.4 0-0.8 0-1.1 0v4.7c0 0.7 0.2 1 0.4 1.3 0.2 0.1 0.8 0.2 0.9 0.2 0.4 0.8-0.5 1-2.2 1-1.7 0-2.4-0.2-2-1 0.1 0 0.4-0.1 0.6-0.2 0.3-0.3 0.3-0.6 0.3-1.3v-4.8h-1.3c-0.2-0.6 0.1-1.1 0.7-1.1h0.6v-0.6c0-1.3 0.2-1.9 0.6-2.4 0.4-0.8 1.2-1.3 2.5-1.3 1.6 0 3 0.8 3 1.9 0 0.5-0.4 1.1-1.1 1.1-0.5 0-1-0.4-1-1 0-0.2 0.1-0.4 0.2-0.6-0.2-0.2-0.6-0.3-0.9-0.3-1.1 0-1.3 0.8-1.3 1.7zm-22.4 3.8v2.2c0 0.7 0.1 1 0.3 1.2 0.3 0.2 0.7 0.3 0.9 0.3 0.3 0.8-0.3 1-2 1-1.7 0-2.4-0.2-2-1 0.1 0 0.4-0.1 0.6-0.3 0.2-0.2 0.3-0.5 0.3-1.2v-3.6c0-0.8-0.3-1-1.1-0.9-0.4-0.8 0.5-1.3 1.2-1.5q0.3-0.1 0.5-0.1c0.7 0 1.1 0.6 1.2 1.3h0.1c0.4-0.8 1.2-1.4 1.9-1.4 0.7 0 1.3 0.4 1.3 1.2 0 0.6-0.4 1.2-1 1.2-0.5 0-1-0.4-1-0.9-0.5 0.1-1.2 0.6-1.2 2.5zm29.4 4.8c-2.4 0-4.3-1.8-4.3-4.4 0-2.6 2-4.4 4.3-4.4 2.5 0 4.3 1.8 4.3 4.4 0 2.6-1.8 4.4-4.3 4.4zm-34.3-2.1c0 0.7 0.4 0.9 1.1 1 0 0.8-0.5 1.1-1.2 1.1-0.7 0.1-1.4-0.3-1.7-1-0.3 0.3-1.2 1-2.5 1-1.7 0-3-1.1-3-2.7 0-1.6 1.5-2.6 3.5-2.6 0.7 0 1.4 0.2 1.8 0.4v-1.1c0-1-0.4-1.6-1.5-1.6-0.3 0-0.8 0-1.2 0.2q0.1 0.2 0.1 0.4c0 0.7-0.4 1.1-1 1.1-0.6 0-1-0.4-1-1 0-1.1 1.3-1.9 3.2-1.9 1.5 0 2.4 0.4 2.9 1 0.4 0.5 0.5 1.4 0.5 2.6zm34.3-5.6c-1.3 0-2.1 1.2-2.1 3 0 2.4 1.1 3.5 2.2 3.5 1.2 0 2-1.1 2-3.1 0-2.1-0.9-3.4-2.1-3.4zm8.2 3.1c0 2 0.3 3 1.6 3 1.4 0 1.8-1.2 1.8-2.4v-2.2c0-0.7-0.3-1-1.1-0.9-0.4-0.9 0.7-1.4 1.4-1.5q0.3-0.1 0.5-0.1c0.9 0 1.3 0.6 1.3 1.4 0 0.3-0.1 0.9-0.1 3.2 0 0.9 0 1.5 0 1.6 0 0.8 0.4 1.2 1.2 1.1 0.3 0.8-0.8 1.2-1.4 1.3q-0.3 0.1-0.6 0.1c-0.8 0-1-0.5-1.1-1.3-0.2 0.1-0.3 0.2-0.5 0.5-0.6 0.5-1.3 0.8-2.1 0.8-0.9 0-1.7-0.4-2.1-0.9-0.8-0.9-0.8-2-0.8-3.7v-1.6c0-0.7-0.3-1-1.1-0.9-0.4-0.9 0.7-1.4 1.4-1.5q0.3-0.1 0.5-0.1c0.9 0 1.3 0.6 1.3 1.4zm-25.1 0.2c0.1 1.6 1.1 2.8 2.9 2.8 1.1 0 2-0.6 2.3-1 0.1 0.1 0.2 0.3 0.2 0.6 0 0.9-0.9 2-3.2 2-2.4 0-4.2-1.8-4.2-4.3 0-2.6 1.7-4.5 4.3-4.5 2.3 0 3.4 1.7 3.4 3.2q0 0.6-0.3 1.2zm3.3-1.1c0.4 0 0.4-0.2 0.4-0.5 0-0.9-0.7-1.7-1.7-1.7-1.4 0-1.9 1.1-2 2.2zm-24.2 1.2c-1 0-1.7 0.5-1.7 1.5 0 0.8 0.6 1.4 1.6 1.4 0.6 0 1.2-0.3 1.6-0.8v-1.2c0-0.5-0.6-0.9-1.5-0.9z"/><path fill-rule="evenodd" class="b" d="m15.5 13.3c-1 0-1.7 0.5-1.7 1.4 0 0.9 0.6 1.5 1.5 1.5 0.6 0 1.2-0.3 1.6-0.8v-1.3c0-0.4-0.5-0.8-1.4-0.8z"/><path fill-rule="evenodd" class="b" d="m36.4 13.1c0.1 1.7 1.1 2.9 2.9 2.9 1.1 0 2-0.6 2.2-1 0.2 0.1 0.3 0.3 0.3 0.6 0 0.8-1 2-3.3 2-2.3 0-4.2-1.9-4.2-4.3 0-2.6 1.8-4.5 4.4-4.5 2.3 0 3.4 1.7 3.4 3.2q0 0.6-0.3 1.1z"/><path fill-rule="evenodd" class="b" d="m39.7 12.1c0.4 0 0.4-0.2 0.4-0.5 0-0.9-0.7-1.7-1.7-1.7-1.4 0-1.9 1.1-2 2.2z"/><path fill-rule="evenodd" class="b" d="m61.4 13c0 2 0.3 3 1.6 3 1.4 0 1.8-1.2 1.8-2.4v-2.2c0-0.7-0.3-1-1.2-0.9-0.3-0.9 0.8-1.4 1.5-1.6q0.3 0 0.5 0c0.9 0 1.3 0.5 1.3 1.4 0 0.3-0.1 0.8-0.1 3.1 0 1 0 1.5 0 1.7 0 0.8 0.4 1.1 1.2 1.1 0.3 0.8-0.8 1.2-1.4 1.3q-0.3 0.1-0.6 0.1c-0.8 0-1-0.6-1.1-1.4-0.2 0.2-0.3 0.3-0.5 0.5-0.6 0.6-1.3 0.9-2.1 0.9-0.9 0-1.7-0.4-2.1-0.9-0.8-0.9-0.8-2-0.8-3.7v-1.6c0-0.7-0.3-1-1.1-0.9-0.4-0.9 0.7-1.4 1.4-1.6q0.3 0 0.5 0c0.9 0 1.3 0.5 1.3 1.4z"/><path fill-rule="evenodd" class="b" d="m57.5 13.2c0-2.6-1.8-4.4-4.3-4.4-2.3 0-4.3 1.8-4.3 4.4 0 2.6 1.9 4.4 4.3 4.4 2.5 0 4.3-1.8 4.3-4.4z"/><path fill-rule="evenodd" class="b" d="m18.9 15.5c0 0.6 0.4 0.8 1.1 0.9 0 0.8-0.5 1.1-1.2 1.2-0.7 0-1.4-0.3-1.7-1-0.3 0.3-1.2 1-2.5 1-1.7 0-3-1.2-3-2.7 0-1.7 1.5-2.6 3.5-2.6 0.7 0 1.4 0.1 1.8 0.3v-1.1c0-1-0.4-1.6-1.5-1.6-0.3 0-0.8 0.1-1.2 0.2q0.1 0.3 0.1 0.5c0 0.6-0.4 1.1-1 1.1-0.6 0-1-0.5-1-1.1 0-1 1.3-1.8 3.2-1.8 1.5 0 2.4 0.3 2.9 0.9 0.4 0.6 0.5 1.4 0.5 2.6z"/><path fill-rule="evenodd" class="b" d="m55.3 13.3c0 2-0.8 3.1-2 3.1-1.1 0-2.2-1.1-2.2-3.5 0-1.8 0.8-3 2.1-3 1.2 0 2.1 1.3 2.1 3.4z"/><path fill-rule="evenodd" class="b" d="m25 10.2c0 0.6 0.5 0.9 1 0.9 0.6 0 1-0.5 1-1.1 0-0.8-0.6-1.2-1.3-1.2-0.7 0-1.5 0.5-1.9 1.4h-0.1c-0.1-0.8-0.4-1.3-1.2-1.3q-0.2 0-0.5 0.1c-0.7 0.1-1.6 0.6-1.2 1.5 0.8-0.2 1.1 0.1 1.1 0.9v3.5c0 0.7-0.1 1-0.3 1.3-0.2 0.1-0.5 0.2-0.6 0.2-0.4 0.8 0.3 1 2 1 1.7 0 2.3-0.2 2-1-0.2 0-0.6-0.1-0.9-0.2-0.2-0.3-0.3-0.6-0.3-1.3v-2.1c0-2 0.7-2.5 1.2-2.6z"/><path fill-rule="evenodd" class="b" d="m46.2 9h2.2c0.2 0.6-0.1 1.1-0.6 1.2q-0.2 0-0.5 0c-0.4 0-0.8 0-1.1 0v4.7c0 0.7 0.2 1 0.4 1.3 0.2 0.1 0.8 0.2 0.9 0.2 0.4 0.8-0.5 1-2.2 1-1.7 0-2.4-0.2-2-1 0.1 0 0.4-0.1 0.6-0.2 0.3-0.3 0.3-0.6 0.3-1.3v-4.8h-1.2c-0.3-0.6 0-1.1 0.6-1.1h0.6v-0.6c0-1.3 0.2-1.9 0.6-2.4 0.4-0.8 1.2-1.3 2.5-1.3 1.6 0 3 0.8 3 1.9 0 0.5-0.4 1.1-1.1 1.1-0.5 0-1-0.4-1-1 0-0.2 0.1-0.4 0.2-0.6-0.2-0.2-0.6-0.3-0.9-0.3-1.1 0-1.3 0.8-1.3 1.7z"/><path fill-rule="evenodd" class="b" d="m32 10.2c0 0.6 0.5 0.9 1 0.9 0.7 0 1.1-0.5 1.1-1.1 0-0.8-0.7-1.2-1.3-1.2-0.8 0-1.6 0.5-2 1.4-0.2-0.8-0.5-1.3-1.3-1.3q-0.2 0-0.5 0.1c-0.6 0.1-1.6 0.6-1.2 1.5 0.8-0.2 1.2 0.1 1.2 0.9v3.5c0 0.7-0.1 1-0.4 1.3-0.2 0.1-0.5 0.2-0.6 0.2-0.4 0.8 0.3 1 2 1 1.7 0 2.3-0.2 2-1-0.2 0-0.6-0.1-0.8-0.2-0.3-0.3-0.4-0.6-0.4-1.3v-2.1c0-2 0.7-2.5 1.2-2.6z"/><path fill-rule="evenodd" class="b" d="m73 10.2c0.1 0.6 0.5 0.9 1 0.9 0.7 0 1.1-0.5 1.1-1.1 0-0.8-0.7-1.2-1.3-1.2-0.7 0-1.5 0.5-2 1.4-0.2-0.8-0.5-1.3-1.2-1.3q-0.3 0-0.6 0.1c-0.6 0.1-1.5 0.6-1.2 1.5 0.9-0.2 1.2 0.1 1.2 0.9v3.5c0 0.7-0.1 1-0.4 1.3-0.2 0.1-0.4 0.2-0.6 0.2-0.3 0.8 0.4 1 2.1 1 1.7 0 2.3-0.2 1.9-1-0.1 0-0.6-0.1-0.8-0.2-0.3-0.3-0.4-0.6-0.4-1.3v-2.1c0-2 0.7-2.5 1.2-2.6z"/><path class="a" d="m0.2 11.5c0 3.8 2.7 6.1 5.6 6.1 2.6 0 4.5-1.8 4.5-3.3 0-0.8-0.5-1.4-1.2-1.4-0.7 0-1.3 0.4-1.3 1.2 0 0.5 0.3 0.8 0.5 1-0.3 0.7-1.1 1.3-2.3 1.3-1.9 0-3.3-2.1-3.3-5 0-2.9 1.3-4.9 3.3-4.9 1.1 0 1.9 0.6 2.3 1.2-0.2 0.3-0.5 0.5-0.5 1.1 0 0.7 0.5 1.2 1.2 1.2 0.7 0 1.2-0.6 1.2-1.4 0-1.5-1.8-3.4-4.5-3.4-2.9 0-5.5 2.5-5.5 6.3z"/><path fill-rule="evenodd" class="b" d="m0.2 11.5c0 3.8 2.7 6.1 5.6 6.1 2.6 0 4.5-1.8 4.5-3.3 0-0.8-0.5-1.4-1.2-1.4-0.7 0-1.3 0.4-1.3 1.2 0 0.5 0.3 0.8 0.5 1-0.3 0.7-1.1 1.3-2.3 1.3-1.9 0-3.3-2.1-3.3-5 0-2.9 1.3-4.9 3.3-4.9 1.1 0 1.9 0.6 2.3 1.2-0.2 0.3-0.5 0.5-0.5 1.1 0 0.7 0.5 1.2 1.2 1.2 0.7 0 1.2-0.6 1.2-1.4 0-1.5-1.8-3.4-4.5-3.4-2.9 0-5.5 2.5-5.5 6.3z"/><path class="c" d="m86.6 2.7l-8.2 7.9c-0.4 0.3-0.6 0.7-0.6 1.3 0 0.6 0.2 1 0.6 1.3l8.2 7.9 0.1 0.1c0.1 0 0.2-0.1 0.2-0.2l-0.1-0.1c-1.9-2.4-3.3-5.1-3.3-9 0-3.8 1.4-6.6 3.3-9l0.1-0.2q0-0.1-0.2-0.1z"/><path class="a" d="m92.9 2c-3.2 0-4.5 4.5-4.5 9.9 0 5.4 1.3 9.9 4.5 9.9 1.9 0 3.5-1.1 3.5-2.1q0-0.3-0.2-0.5c-0.9-0.9-1.3-1.8-1.3-2.6 0-1.4 1.3-2.5 2.5-2.5 1.6 0 2.5 1.2 2.5 2.9 0 1.6-0.6 2.9-1.4 3.9v0.1q0 0.2 0.1 0.2l0.2-0.1 8.1-7.9c0.4-0.3 0.7-0.7 0.7-1.3 0-0.6-0.3-1-0.7-1.3l-8.1-7.9-0.2-0.1q-0.1 0-0.1 0.1v0.2c0.8 1 1.4 2.3 1.4 3.9 0 1.6-0.9 2.9-2.5 2.9-1.2 0-2.5-1.1-2.5-2.6 0-0.7 0.4-1.6 1.3-2.5q0.2-0.2 0.2-0.6c0-0.9-1.6-2-3.5-2z"/></svg>