<svg version="1.2" xmlns="http://www.w3.org/2000/svg" viewBox="0 0 115 47" width="115" height="47"><style>.a{fill:#ed1a37}</style><path class="a" d="m29.1 34.5c-3.4 0.9-5.5 1.3-9 2.2-15 3.7-14.6-4.2-13.8-7.9 1-5.3 3.6-9.9 8.6-15.5 2.7-3 5.3-5.5 8.6-6.5 2.6-0.7 2.4 1.3 2.1 1.6-0.3 0-2.5 0.2-2.7 2.5-0.1 1.6 2.3 2.2 3.8-1.5 1.1-3-0.9-4.3-2.1-4.4-9.9-0.8-28.1 18.7-22.6 30.6 1.5 2.6 5.2 4.5 9.1 4 2-0.2 4.3-0.7 8.1-1.6 2.3-0.5 13.8-4.3 17.5 2.3 0 0 1.3-2.3 4.4-2.4 2.6-0.2 6.3 0.8 9 2.6-0.8-1-7.6-9.3-21-6z"/><path fill-rule="evenodd" class="a" d="m26.4 20.2c0.8 0.2 3.2-1.5 4.7-3 1.1-1.3 3.1-2.8 4.3-3.3 0.9-0.4 2.4-0.5 3.3 0 0.6 0.4 1 1.1 1.1 1.8 0.1 1.9-1.6 4.2-2.6 4.3-0.8 0.1-1.3-0.4-1.2-1 0.2-2 1.9-2.5 2.5-2.4 0.3-0.4 0.2-1-0.2-1.2-0.4-0.3-1.3-0.1-2.1 0.5-2.7 2.1-5.2 5.6-6.6 9.5-0.3 0.7-0.4 1.8 0.1 2.5 1.2 1.8 4-0.7 4-0.7 1.9-1.6 3.8-3.9 5.3-5.9 3.7-5.2 8.8-9.8 11-6.8l0.1 0.1 0.4-0.6h3.6l-7.6 12.6c-0.2 0.4-0.2 0.8 0 1 0.2 0.1 0.6 0 0.6 0 1.9-0.9 5-5.1 5-5.1h1.2c-1.9 2.6-4.3 5.8-7.3 7.8-3.5 2.2-4.2-0.5-3.8-1.9 0 0-2.7 3.2-5.2 2.7-2.4-0.6-1-4.3-1-4.5-0.2 0.2-6.2 6.8-9.8 3.7-3-2.6 1.3-9.2 1.3-9.2q-1 0.3-1.8 0.4c-0.8 1.9-8.6 12.8-12.1 8.8-1.7-2.1 0-6.8 3-10.7 3.4-4.5 7.8-7 9.9-5.7 2.2 1.5 0.3 5.5-0.1 6.3zm-2.1 1.2c-1-0.3-2.4-1-3.2-2.4-0.9 1.2-2.7 3.8-3.3 5.8-1.2 3.4 1 3.2 2.2 2.2 2.2-1.7 4.2-5.2 4.3-5.3q0.1-0.3 0-0.3zm15.7 5.6c0 0.4 0.2 1.2 1.5 0.4 2-0.9 7.2-10.4 7.9-11.6-0.2-0.9-1.4-0.6-2.3 0.3-0.8 0.8-1.8 1.9-3.3 3.9-0.6 0.7-3.8 5.2-3.8 7zm-13.8-10.4c0.1-0.5-0.3-2.2-2.2-1.1-0.5 0.4-1.9 1.6-1.6 3 0.2 0.9 1.4 1.6 2.5 1.8 0.1 0 0.2 0 0.2-0.1 0.2-0.3 1-1.7 1.1-3.6z"/><path fill-rule="evenodd" class="a" d="m70.9 28.2c-2 5.1-5.5 9-9.6 10.9-1.9 0.7-4.5 1.1-6.5-0.9-2.4-2.3-2.2-6.4-1.1-9.1 6.1-16.4 18.8-23.1 22.6-23.8 2.1-0.4 3.5-0.3 4.6 0.8 0 0 4.9-2.4 9.9 0.4 2.4 1.3 3.4 1.8 5.1 2.8l1 0.6c-0.7 0.6-1.9 1.9-2.7 2.7-1.6-0.7-6-3.7-7.7-4.4-0.9-0.4-3.6-1.6-4.9-0.9 0.5 1.7-2 10.3-7.8 11.8-1.6 0.5-3.3-1.2-1.3-5 2.4-4.8 7.2-7.4 7.2-7.4-0.8-0.3-1.8-0.1-2.9 0.4-5.2 2.3-10.6 8.8-12.6 11.5-3 4.3-5.8 9.2-6.4 14.2-0.1 1.8 0.5 3.2 1.7 3.8 1.8 1.1 3.9-0.3 5.3-1.4 1.6-1.4 3.2-3.4 4.2-5.4 1.4-2.7 1.8-5.4 0.8-5.8-1.1-0.4-2.3 0.9-2.9 1.7-1.4 1.8-1.7 3.9-1.7 3.9-2 0.9-3.8 2.4-4.7 3.4 0.3-2.1 0.7-3.5 1.5-5.1 1.5-3.3 4.7-5.5 6.8-5.7 0.8-0.1 1.7 0.1 2.3 1.1 0.8 1.2 0.3 3.9-0.2 4.9zm9.5-20.5c-2.9 1.5-5.9 4.5-7.3 7.7-1.1 2.3 0.1 2.8 0.8 2.6 3-0.8 6.7-6 6.5-10.3z"/><path class="a" d="m109.1 9.1c-2.6 1.4-5.3 2.3-8.5 2q-1.4 1.4-2.6 3c4.5 1.1 9.4-1.4 12.1-3.7 3-2.6 4.3-5.4 4.3-5.4 0 0-2.2 2.4-5.3 4.1z"/><path class="a" d="m60.1 14h-3.4l-2 3.1h3.4z"/><path fill-rule="evenodd" class="a" d="m105.6 30.8h1.2c-0.9 1.4-5.4 8.1-9 8.8-2.1 0.5-2.4-1.3-2.1-2.7-0.8 0.8-2.8 2.5-4.1 2.7-1.2 0.3-3.1-0.1-2.6-3.5-2.2 2.7-5 4.8-6.7 2.8-1.1-1.4-0.6-3.8 0.7-7.2 0 0 0.4-1.3 0.5-1.4-0.7 0.2-1.9 0.2-2 0.3-2 3.2-4.5 6.8-8 8.6-0.5 0.3-1.9 0.8-2.9 0.3-1.1-0.6-1.5-1.7-1.3-3.4 0.3-2.2 1.3-4.1 2.3-5.9 1.9-2.9 4.6-6.3 8.1-7.7 0.7-0.3 1.9-0.5 2.8-0.1 0.8 0.4 1 1.4 1 2.2q0 0.6-0.1 1.2c-0.3 1.4-0.9 2.7-1.3 3.6 0.2 0.2 1.6-0.1 1.9-0.4 4.9-9.8 10.5-16.9 17.1-21.9 0 0 2.7-2 4.5-1.6 0.4 0.1 0.8 0.4 0.8 0.8 0.3 1.5-0.4 2.7-1 3.7-0.5 0.2-1.2 0.3-1.2 0.3 0 0 1.2-2 1.2-3 0-0.5-0.3-0.5-0.4-0.5-1 0-4.1 3.1-4.1 3.1-5 4.8-10.8 14.6-11.7 16.7 1.9-1 8.7-7.3 12-11.7 0.7 0 1.2-0.1 1.2-0.1-0.5 1-4.1 5.4-8.3 9.3-2 1.8-4.1 3.4-6 4.7-0.9 1.9-2.1 4.8-2.3 6.2 0 0.7 0.1 1.7 0.9 1.6 1.3-0.3 3.7-4.1 3.7-4.1 2.2-3.3 5.1-7.7 9-9.8 0.9-0.5 2.3-0.7 3.1-0.2 0.5 0.3 0.6 0.5 0.9 0.9 0 0 0.3-0.6 0.5-0.9h3.6c0 0-6.9 11.6-7.6 13.1-0.3 0.7 0.1 0.9 0.6 0.7 1.6-0.6 3.8-3.7 5.1-5.5zm-23.2-5.8c0-1.3-0.9-1.6-2.1-1-0.7 0.4-2 1.5-1.7 3.1 0.3 1.6 2.2 2.2 2.3 2.2 0.6-1 1.5-2.8 1.5-4.3zm-2.1 5.3c-1-0.4-2.4-1.2-3-2.6-1.5 1.9-3.8 5.6-3.7 7.3 0 0.5 0.3 1.9 1.9 1 1.8-0.8 4.1-4.1 4.8-5.7zm20.1-1.9c0.7-1.2 2.3-3.7 2.2-3.9-0.1-1-1.2-0.4-1.7-0.1-3.7 2.8-7.4 9.1-7.5 11 0 1.2 0.9 0.9 1.1 0.8 1.5-0.4 4.5-5.5 5.9-7.8z"/><path fill-rule="evenodd" class="a" d="m108.6 33.8c-0.8 0-1.5-0.7-1.5-1.5 0-0.9 0.7-1.5 1.5-1.5 0.9 0 1.6 0.6 1.6 1.5 0 0.8-0.7 1.5-1.6 1.5zm0-2.8c-0.7 0-1.2 0.6-1.2 1.3 0 0.7 0.5 1.3 1.2 1.3 0.8 0 1.3-0.6 1.3-1.3 0-0.7-0.5-1.3-1.3-1.3zm0.4 2.1l-0.4-0.7h-0.2v0.7h-0.3v-1.7h0.6c0.3 0 0.5 0.3 0.5 0.5 0 0.3-0.1 0.4-0.3 0.5l0.4 0.7zm-0.3-1.4h-0.3v0.5h0.3c0.1 0 0.3-0.1 0.3-0.3 0-0.1-0.2-0.2-0.3-0.2z"/></svg>