<svg version="1.2" xmlns="http://www.w3.org/2000/svg" viewBox="0 0 115 39" width="115" height="39"><style>.a{fill:#ec1d27}.b{fill:#231f20}</style><path fill-rule="evenodd" class="a" d="m35 10l-2.4 11.1-0.2 1.1-1.2 5.4q-0.5 2.3-1.8 3.3-1.1 0.8-2.4 0.8c-0.8 0-2.6-0.1-2.9-2.4-0.1-1.5 0.6-6.4 4.8-7.2l0.3-1.3q-1.3 1.3-2.9 1.3-2.2 0-3-2 0-0.1 0-0.2-1.6 2.2-4.1 2.2-1 0-1.7-0.6-0.8-0.7-0.8-2.2 0-0.7 0.2-1.6l1.6-7.7h3.5l-1.7 8.2q-0.1 0.4-0.1 0.8 0 0.8 1 0.8 0.7 0 1.3-0.6 0.3-0.3 0.6-0.7v-0.1q0-0.9 0.1-1.9 0.2-0.9 0.5-1.9 0.8-2 2.2-3.4 1.4-1.3 3.4-1.3 1 0 1.5 0.3 0.4 0.4 0.4 0.9v0.1l0.3-1.2zm-6.3 13.3c-2.8 0.5-3.9 5.9-2.7 6.5 1 0.4 1.6-1.4 1.7-2.1zm2.4-11.1q0-0.5-0.5-0.7-0.2-0.1-0.5-0.1-0.8 0-1.4 0.7-1.6 1.7-1.9 4.9-0.1 0.5-0.1 1.1 0 1 0.4 1.4 0.3 0.3 0.7 0.3 0.7 0 1.2-0.5 0.6-0.5 0.9-1.4z"/><path class="a" d="m20.9 8.7q0.8 0 1.4-0.5 0.6-0.6 0.6-1.4 0-0.8-0.6-1.3-0.5-0.6-1.4-0.6-0.8 0-1.3 0.6-0.6 0.5-0.6 1.3 0 0.8 0.6 1.3 0.5 0.6 1.3 0.6z"/><path fill-rule="evenodd" class="a" d="m16.5 11q0 2-0.6 4-1.1 4.3-3.6 6.3-1.2 1-2.6 1-1.4 0-2.9-1.3l-0.2 1h-3.5l3.6-16.3q-0.9 0.3-1.7 1-1.7 1.6-1.7 4.2 0 1 0.2 1.5 0.1 0.1 0.1 0.2-1.9 0-2.4-1.2-0.2-0.4-0.2-1.2 0-0.7 0.3-1.5 0.3-0.8 0.9-1.5 1.2-1.4 3.3-2.3 2.1-0.9 4.5-0.9 4.4 0 5.8 3.5 0.7 1.5 0.7 3.5zm-3.4-1.4q0-4-2.8-4.4l-3.2 14.5q0.7 0.5 1.4 0.5 1.1 0 1.9-1 1.7-1.8 2.4-5.9 0.3-1.8 0.3-3.7z"/><path class="a" d="m40.7 6.8q0 0.8-0.6 1.4-0.6 0.5-1.4 0.5-0.8 0-1.3-0.6-0.6-0.5-0.6-1.3 0-0.8 0.6-1.3 0.5-0.6 1.3-0.6 0.9 0 1.4 0.6 0.6 0.5 0.6 1.3z"/><path class="a" d="m86.8 22l2.5-12h3.5l-0.3 1.5q0.6-0.5 1.3-1 0.8-0.5 1.6-0.5 0.9 0 1.3 0.6 0.4 0.5 0.4 1 0 0.9-0.5 1.4-0.4 0.6-1.1 0.6-0.7 0-0.9-0.3-0.2-0.3-0.2-0.7-0.1-0.3-0.1-0.4-0.1-0.2-0.4-0.2-0.5 0-0.8 0.2-0.4 0.2-0.9 0.7l-1.9 9.1z"/><path fill-rule="evenodd" class="b" d="m38.8 28.6v-1.9h0.5v5.1h-0.5v-0.6l-0.2 0.1-0.1 0.1q-0.4 0.4-1 0.4-0.5 0-0.9-0.1-1-0.4-1.2-1.5-0.1-0.1-0.1-0.3 0-0.3 0.2-0.7 0.3-0.9 1.2-1.2 0.3-0.1 0.6-0.1c0.5 0 0.8 0.2 1.4 0.6q0 0 0.1 0.1zm-3 1.2c0 0.3 0.1 0.7 0.3 0.9q0.3 0.4 0.9 0.6 0.1 0 0.2 0 0.2 0.1 0.3 0c0.4 0 0.8-0.2 1-0.5q0.3-0.5 0.3-0.9c0-0.3-0.1-0.7-0.4-1-0.2-0.3-0.6-0.5-1-0.5q-0.2 0-0.3 0c-0.3 0.1-0.7 0.3-0.9 0.5-0.2 0.3-0.3 0.6-0.4 0.9z"/><path class="b" d="m40.5 26.7h0.4v0.9h-0.4zm0 1.3h0.4v3.7h-0.4z"/><path fill-rule="evenodd" class="b" d="m45.5 28.6v-0.6h0.5c0 0 0 3.3 0 3.4-0.1 0.6-0.4 1.1-0.9 1.4q-0.5 0.4-1.1 0.3-0.1 0-0.2 0-1.1-0.1-1.6-1.1l-0.1-0.2h0.6v0.1l0.1 0.2q0.3 0.4 0.7 0.5 0.3 0 0.5 0.1 0.3 0 0.6-0.2c0.5-0.2 0.7-0.6 0.8-1.1v-0.2q0 0.1-0.1 0.1c-0.5 0.4-0.7 0.5-1.2 0.5q-0.5 0.1-0.9-0.1-1-0.5-1.2-1.5 0-0.2 0-0.3 0-0.2 0.1-0.4c0.1-0.7 0.6-1.2 1.3-1.5q0.3-0.1 0.6-0.1 0.1 0 0.1 0c0.5 0.1 0.8 0.2 1.2 0.6q0.1 0 0.2 0.1zm-3 1.2q0 0.5 0.3 0.9c0.3 0.4 0.7 0.7 1.3 0.6 0.3 0 0.7-0.1 1-0.4 0.3-0.3 0.4-0.6 0.4-1 0-0.4-0.1-0.8-0.5-1.1q-0.4-0.3-0.9-0.4-0.1 0-0.2 0c-0.4 0.1-0.8 0.2-1 0.5-0.2 0.3-0.4 0.6-0.4 0.9z"/><path class="b" d="m47.1 26.7h0.5v0.9h-0.5zm0 1.3h0.5v3.7h-0.5z"/><path class="b" d="m48.6 28.5v-0.5h0.7v-1.3h0.5v1.3h0.8v0.5h-0.8v3.3h-0.4v-3.3z"/><path fill-rule="evenodd" class="b" d="m54.9 28.6v-0.6h0.4v3.7h-0.5v-0.5l-0.2 0.2q-0.5 0.4-1.1 0.4-0.5 0-0.9-0.1-0.8-0.4-1.1-1.1-0.1-0.4-0.1-0.7 0-0.2 0-0.3 0.2-1 1-1.4 0.5-0.3 1-0.3 0 0 0.1 0.1c0.5 0 0.8 0.1 1.2 0.5q0.1 0 0.2 0.1zm-3 1.3q0 0.1 0 0.3c0.2 0.6 0.6 1 1.2 1.1q0.1 0 0.2 0 0.2 0 0.3 0c0.4 0 0.7-0.2 1-0.5 0.1-0.3 0.2-0.6 0.2-0.9 0-0.3-0.1-0.7-0.3-0.9q-0.2-0.3-0.4-0.4-0.3-0.2-0.7-0.2-0.4 0-0.8 0.2-0.2 0.2-0.4 0.4-0.3 0.5-0.3 0.9z"/><path class="b" d="m56.5 26.7h0.5v5h-0.5z"/><path fill-rule="evenodd" class="b" d="m64.9 30h-3.5l0.1 0.2v0.1q0.1 0.2 0.2 0.4c0.3 0.4 0.7 0.7 1.2 0.6q0.9 0 1.2-0.6l0.1-0.1 0.1-0.2h0.5q0 0.1-0.1 0.2c-0.2 0.5-0.4 0.7-0.7 0.9q-0.5 0.3-0.9 0.3-0.2 0-0.5 0c-0.9-0.2-1.5-0.8-1.6-1.7q0-0.1 0-0.3c0-0.4 0.2-0.9 0.6-1.4 0.3-0.3 0.8-0.5 1.4-0.5 0.4 0 0.9 0.2 1.3 0.7q0.5 0.5 0.6 1.2zm-3.4-0.5h2.8v-0.2c-0.2-0.3-0.4-0.6-0.8-0.8q-0.3-0.1-0.5-0.1c-0.3 0-0.6 0.1-0.9 0.2q-0.4 0.2-0.5 0.7l-0.1 0.1z"/><path class="b" d="m65.9 31.7v-3.7h0.5v0.4q0.1-0.1 0.1-0.1c0.4-0.3 0.7-0.4 1.1-0.4q0.5 0.1 0.9 0.3c0.4 0.2 0.6 0.6 0.6 1v0.2 2.4h-0.5v-2.1q0-0.1 0-0.2-0.1-0.9-0.9-1-0.1-0.1-0.1-0.1-0.2 0-0.3 0.1-0.8 0.1-0.9 0.9v0.1 0.2 2z"/><path class="b" d="m70 28.5v-0.5h0.8v-1.3h0.5v1.3h0.8v0.5h-0.8v3.3h-0.5v-3.3z"/><path fill-rule="evenodd" class="b" d="m76.8 30h-3.4v0.2l0.1 0.1q0 0.2 0.1 0.4c0.3 0.4 0.8 0.7 1.3 0.6q0.7 0 1.2-0.6l0.1-0.1v-0.2h0.6q-0.1 0.1-0.1 0.2c-0.3 0.5-0.4 0.7-0.8 0.9q-0.4 0.3-0.9 0.3-0.2 0-0.4 0c-0.9-0.2-1.5-0.8-1.7-1.7q0-0.1 0-0.3c0-0.4 0.2-0.9 0.6-1.4 0.4-0.3 0.9-0.5 1.4-0.5 0.5 0 1 0.2 1.4 0.7q0.5 0.5 0.5 1.2zm-3.4-0.5h2.9l-0.1-0.1v-0.1c-0.1-0.3-0.4-0.6-0.7-0.8q-0.3-0.1-0.6-0.1c-0.3 0-0.5 0.1-0.8 0.2q-0.4 0.2-0.6 0.7v0.1z"/><path class="b" d="m77.9 31.8v-3.8h0.4v0.4l0.2-0.1q0.1-0.1 0.2-0.2 0.3-0.1 0.5-0.1h0.1 0.1v0.4 0.1q-0.6 0-0.9 0.5c-0.1 0.2-0.1 0.3-0.1 0.6v0.1 2.1z"/><path class="b" d="m80 28.5v-0.5h0.8v-1.3h0.5v1.3h0.8v0.5h-0.8v3.3h-0.5v-3.3z"/><path fill-rule="evenodd" class="b" d="m86.3 28.6q0 0 0 0zm0-0.6h0.5v3.7h-0.5v-0.5l-0.2 0.2q-0.5 0.4-1.1 0.4-0.5 0-0.9-0.1-0.8-0.4-1.1-1.1-0.1-0.4-0.1-0.7 0-0.2 0-0.3 0.2-1 1-1.4 0.5-0.3 0.9-0.3 0.1 0 0.2 0.1c0.5 0 0.7 0.1 1.2 0.5q0.1 0 0.1 0.1zm-2.9 1.9q0 0.1 0 0.3c0.1 0.6 0.6 1 1.2 1.1q0.1 0 0.2 0 0.2 0 0.3 0c0.4 0 0.7-0.2 0.9-0.5q0.3-0.5 0.3-0.9c0-0.3-0.1-0.7-0.3-0.9q-0.2-0.3-0.4-0.4-0.4-0.2-0.7-0.2-0.4 0-0.8 0.2-0.3 0.2-0.4 0.4-0.3 0.4-0.3 0.9z"/><path class="b" d="m88 26.7h0.5v0.9h-0.5zm0 1.3h0.5v3.7h-0.5z"/><path class="b" d="m89.7 31.7v-3.7h0.5v0.4q0-0.1 0.1-0.1c0.4-0.3 0.7-0.4 1-0.4q0.6 0.1 0.9 0.3c0.5 0.2 0.7 0.6 0.7 1v0.2 2.4h-0.5v-2.1q0-0.1 0-0.2-0.1-0.9-0.9-1-0.1-0.1-0.2-0.1-0.1 0-0.2 0.1-0.8 0.1-0.9 0.9v0.1 0.2 2z"/><path class="b" d="m94.1 31.7v-3.7h0.4v0.4l0.1-0.1 0.1-0.1c0.1-0.1 0.4-0.2 0.7-0.3q0.1 0 0.1 0c0.5 0 0.8 0.2 1.2 0.6l0.1 0.1v-0.1c0.3-0.3 0.7-0.5 1.2-0.5 0.8-0.1 1.4 0.4 1.5 1.1q0 0.3 0 0.5v2.2h-0.5v-2.3q0 0 0-0.1c0-0.6-0.3-0.9-0.8-1q-0.1 0-0.1 0-0.2 0-0.3 0c-0.5 0.2-0.8 0.5-0.8 1.1v2.3h-0.4v-2.1q0-0.1-0.1-0.2c0-0.3-0.1-0.5-0.2-0.7q-0.2-0.4-0.7-0.4-0.4 0-0.7 0.2-0.3 0.3-0.3 0.7v0.2 2.2z"/><path fill-rule="evenodd" class="b" d="m104.5 30h-3.4v0.3q0.1 0.2 0.2 0.4c0.3 0.4 0.7 0.7 1.3 0.6q0.7 0 1.2-0.6v-0.1l0.1-0.2h0.5q0 0.1-0.1 0.2c-0.2 0.5-0.4 0.7-0.7 0.9q-0.4 0.3-0.9 0.3-0.2 0-0.4 0c-1-0.2-1.6-0.8-1.7-1.7q0-0.1 0-0.3c0-0.4 0.2-0.9 0.6-1.4 0.4-0.3 0.8-0.5 1.4-0.5 0.5 0 0.9 0.2 1.4 0.7q0.5 0.5 0.5 1.2zm-3.4-0.5h2.9l-0.1-0.1v-0.1c-0.1-0.3-0.4-0.6-0.8-0.8q-0.3-0.1-0.5-0.1c-0.3 0-0.6 0.1-0.8 0.2q-0.4 0.2-0.6 0.7l-0.1 0.1z"/><path class="b" d="m105.5 31.7v-3.7h0.5v0.4q0.1-0.1 0.2-0.1c0.4-0.3 0.6-0.4 1-0.4q0.5 0.1 0.9 0.3c0.4 0.2 0.6 0.6 0.6 1v0.2 2.4h-0.5v-2.1q0-0.1 0-0.2-0.1-0.9-0.9-1-0.1-0.1-0.1-0.1-0.2 0-0.3 0.1-0.8 0.1-0.9 0.9v0.1 0.2 2z"/><path class="b" d="m109.7 28.5v-0.5h0.8v-1.3h0.4v1.3h0.8v0.5h-0.8v3.3h-0.4v-3.3z"/><path fill-rule="evenodd" class="a" d="m106.1 14.8q-0.3 3.3-1.9 5.3-1.6 2-3.9 2-2.8 0-3.6-2-0.3-0.8-0.3-1.6 0-0.9 0.2-1.8 0.1-0.9 0.4-1.8 0.8-2.2 2.1-3.5 1.6-1.6 3.9-1.6 3 0 3.1 3.8zm-2 0.1c0.1-1 0.1-1.6 0.1-2.3q-0.1-0.8-0.3-1.1-0.2-0.3-0.7-0.3-0.6 0-1.2 0.7-1.1 1.4-1.7 4-0.2 1.2-0.2 1.9 0 1.3 0.3 1.7 0.2 0.4 0.8 0.4 1 0 1.8-1.4c0.5-1 0.9-2.2 1.1-3.6z"/><path class="a" d="m112.3 13c0.4-0.2 0.6-0.5 0.7-1 0.1-0.9-0.6-1.1-1.1-1.1-0.7 0-1.9 0.4-1.4 1.9 0.2 0.4 0.5 0.8 1 1.2l0.7 0.6q0.9 0.8 1.2 1.3 0.6 1.1 0.6 2.1 0 2-1.4 3.1-1.2 1-3.1 1-2.4 0-3.2-1.5-0.2-0.5-0.2-1.2 0-1.3 0.7-2 0.7-0.7 1.6-0.7 0.9 0 1.3 0.6c0.1 0.1 0.2 0.3 0.1 0.5q-1.8-0.1-1.8 1.2c-0.1 0.7 0.4 1.3 1.5 1.3 2.2 0 1.8-2.5 1.6-2.8q-0.2-0.6-0.6-1.1-0.4-0.4-0.8-0.9-0.4-0.4-0.8-0.9-0.8-1-0.8-2 0-1.2 1-2 1.1-0.8 2.7-0.8c1 0 2.6 0.4 2.6 2q0 0.6-0.4 1.1-0.3 0.4-0.9 0.4-0.5 0-0.8-0.3z"/><path fill-rule="evenodd" class="a" d="m86.8 15.5q0 0.6-0.1 1.2 0 0.4-0.1 0.9c-0.4 1.7-1.5 4.8-5.1 4.8-0.9 0-1.3-0.2-2.1-0.6-0.3-0.1-1.1-0.7-1.1-0.8l-0.2 1h-3.5l3.5-16.3q-0.1 0-0.2 0-1.4 0.8-2.3 2.1-0.9 1.3-0.9 3.1 0 1 0.3 1.5 0.1 0.1 0.1 0.2-2 0-2.5-1.2-0.1-0.4-0.1-1 0-1.3 0.7-2.4 0.7-1.2 1.9-2.1 2.7-1.9 6.1-1.9 2.6 0 3.9 1.1 1.3 1.1 1.3 2.7 0 1.1-0.6 2.1-0.6 1.1-1.8 1.7 1.4 0.3 2.1 1.4 0.7 1 0.7 2.5zm-3.3 0.3q0-3.1-2.3-3.1-0.6 0-1.1 0.1l-1.5 6.9c0 0 0.6 0.4 1.1 0.5 0.5 0.1 2.2 0.1 3.2-1.7 0.5-0.8 0.6-1.6 0.6-2.7zm0.5-8.1q0-1.8-1.8-2.4-0.2-0.1-0.5-0.1l-1.4 6.4h0.2q1.4 0 2.4-1.3 1.1-1.2 1.1-2.6z"/><path fill-rule="evenodd" class="a" d="m66.8 17.7h1q-1.6 4.5-5.2 4.5-1 0-1.8-0.7-0.5-0.5-0.6-1.4-1.5 2-3.7 2-2.1 0-2.4-2.2-1.5 2.2-3.6 2.2-2.2 0-2.9-2 0-0.1-0.1-0.2-1.5 2.2-4.1 2.2-0.9 0-1.7-0.6-0.5-0.5-0.7-1.5-1.5 2.1-4 2.1-1 0-1.7-0.6-0.8-0.7-0.8-2.2 0-0.7 0.2-1.6l1.6-7.7h3.5l-1.7 8.2q-0.1 0.4-0.1 0.8 0 0.8 1 0.8 0.7 0 1.3-0.6 0.6-0.6 0.9-1.5l1.6-7.7h-0.8l0.2-1h0.8l0.8-3.6 3.6-0.5-0.9 4.1h3.5l-0.2 1h-3.5l-1.7 8.2q-0.1 0.4-0.1 0.8 0 0.8 1 0.8 0.7 0 1.3-0.6 0.3-0.3 0.5-0.7v-0.1q0-0.9 0.2-1.9 0.1-0.9 0.5-1.9 0.7-2 2.2-3.4 1.4-1.3 3.3-1.3 1.1 0 1.5 0.3 0.5 0.4 0.5 0.9v0.2l0.3-1.3h3.5l-1.8 8.2q-0.1 0.4-0.1 0.7 0 1.1 1 1.1 1.1 0 1.8-1.8 0-0.2 0.1-0.5l1.9-8.7q0.5-2.4 1.9-3.4 1-0.7 2.3-0.7c0.9 0 2.6 0.1 2.9 2.4 0.2 1.5-0.6 6.4-4.8 7.2l-0.8 3.7q-0.1 0.4-0.1 0.8 0 0.9 1 0.9 0.7 0 1.3-0.7 0.6-0.6 0.9-1.5zm-2-4.4c2.7-0.5 3.9-5.9 2.6-6.5-1-0.4-1.5 1.4-1.7 2.1zm-9.4-1q0-0.2-0.3-0.6-0.2-0.3-0.8-0.3-0.7 0-1.3 0.7-1.6 1.7-2 5 0 0.5 0 1 0 1.1 0.4 1.5 0.3 0.3 0.7 0.3 0.7 0 1.3-0.6 0.6-0.6 0.8-1.6z"/></svg>