<svg version="1.2" xmlns="http://www.w3.org/2000/svg" viewBox="0 0 600 630" width="600" height="630"><style>.a{opacity:1;fill:#ff4746}</style><path fill-rule="evenodd" class="a" d="m274.5 14.5q25 0 50 0 158.2 18.2 238.5 155 30.4 56.5 36.5 120 0 25 0 50-18.2 158.2-155 238.5-57 30.6-121 36.5-24 0-48 0-158.8-17.7-239.5-155-30.4-56.5-36.5-120 0-25 0-50 18.2-158.2 155-238.5 56.5-30.4 120-36.5zm-118 224q84 2 168 0 12.3-19.9 25-39.5-84-0.8-168-0.5-12.5 20-25 40zm125 125.5q-58 1-116 0 12.8-20.4 26-40.5 35-1 70-2 12.9-19.2 25-39-78.5-1.8-157-0.5-13.4 19.7-26 40 18.5 0.3 37 1.5-25.5 40-51 80 108.5 2 217 0 39.9-63.3 80.5-126 15.1 21.7 29.5 44-13 1.2-26 1.5-12.2 19.6-24 39.5 39 1 78 2 13 19.5 26 39 24.5 1.7 49 0.5-67-102.2-135-203.5-51.2 81.9-103 163.5z"/></svg>