<svg version="1.2" xmlns="http://www.w3.org/2000/svg" viewBox="0 0 55 63" width="55" height="63"><style>.a{fill:#f9ac0c}</style><path class="a" d="m31.6 25.9c0 1.1 1.1 1.4 2.3 1.4 1.3 0 3.5-0.5 3.5-3.4-0.7 0.4-2.4 0.5-3.6 0.6-1.1 0.2-2.2 0.3-2.2 1.4z"/><path fill-rule="evenodd" class="a" d="m14.3 18.2h-5v-0.7c0-0.9 1.2-2 2.5-2 0.8 0 2.7 0.5 2.7 1.7h2.8c0-3.3-3-4-5.5-4-3.8 0-5.5 2.2-5.5 4.1v0.9h-1l2.3-15.2 47.3 8.1-1.5 10c-0.8-2.2-3.3-3.2-6.1-3.2-4.3 0-6.7 2.5-6.7 5.8 0 3.3 2.7 5.6 6.7 5.6 2.2 0 3.9-0.7 5.1-1.8l-5.1 32.2-47.3-8.1 5-31.5h1.3v8.9h3v-8.9h5v8.9h3.3v-5.7c0-2.2 1.6-3.1 3.4-3.1 1.5 0 3.4 0.9 3.4 2.7v6.1h3.2v-6.7c0-2.7-2-4.4-5.5-4.4-1.4 0-3.8 0.5-4.6 1.8h-0.1v-1.5h-1.5c0 0-1.6 0-1.6 0zm26.1 3.2c0-2.6-3.2-3.5-5.9-3.5-3.1 0-5.9 0.8-6.2 3.6h3.8c0.1-1.2 1-1.7 2.4-1.7 1.3 0 2.4 0.2 2.4 1.5 0 1.2-2.1 1.2-4.4 1.4-2.3 0.3-4.6 0.9-4.6 3.3 0 2.2 2.1 3.3 4.6 3.3 1.7 0 3.5-0.4 4.7-1.4v1.2h3.2z"/><path class="a" d="m47.3 20.1c-2.3 0-3.1 1.9-3.1 3.5 0 1.6 0.8 3.4 3 3.4 1.7 0 2.7-0.9 2.9-2.2h2.7l0.4-2.8h-3.2c-0.2-1.3-1.2-1.9-2.7-1.9z"/></svg>