<svg version="1.2" xmlns="http://www.w3.org/2000/svg" viewBox="0 0 180 189" width="180" height="189"><style>.a{opacity:1;fill:#f80317}.b{fill:#d5b700}.c{fill:#efce02}.d{fill:#381d05}.e{fill:#200700}.f{fill:#baa01a}.g{fill:#e9e8e4}.h{fill:#251704}.i{fill:#100100}.j{fill:#2d1302}.k{fill:#100900}.l{fill:#191713}.m{fill:#c9c9c9}.n{fill:#2a2826}.o{fill:#e9e7e7}.p{fill:#2a1a06}.q{fill:#492b16}.r{fill:#67581c}.s{fill:#e7e7e7}.t{fill:#bea317}.u{fill:#462b08}.v{fill:#ebebeb}.w{fill:#e3bf00}.x{fill:#fff7f7}.y{fill:#282315}.z{fill:#d70011}.A{fill:#fff9f9}.B{fill:#fff2f3}.C{fill:#3c1905}.D{fill:#4d1c06}.E{fill:#fff3f4}.F{fill:#fff5f6}.G{fill:#f90f1c}.H{fill:#fb1d27}.I{fill:#ff8995}</style><path fill-rule="evenodd" class="a" d="m75.5 3.5q14 0 28 0 62.5 13.5 76 76 0 14 0 28-13.5 62.5-76 76-14 0-28 0-62.5-13.5-76-76 0-14 0-28 13.5-62.5 76-76z"/><path fill-rule="evenodd" class="b" d="m40.5 54.5q0 1 0 2-1.9 1.4-4 0.5 1.5-2.2 4-2.5z"/><path fill-rule="evenodd" class="c" d="m64.5 62.5q-0.2 0.9-1 1.5 1.9 0.6 2 2.5-0.5 0-1 0-1.3 0.5-1 2-1 0-2 0 0.3-4.5-3-7.5-1.5-0.3-3-0.5-2.3 0.2-3 2-1.1 3.6-2 7.5 2.3 1.8 3.5 4.5 0.6-1.9 2.5-2 2.3 1.2 5 2 0.8 1.3-2 1.5 2.7 1.6 5 0.5 1 0.5 2 1 3.4 4.1 1 9-2.5 2-5 4-2.4 0.8-5 1-2.3 2.9-6 1.5-0.9-2.8-3-5-5.8-3.5-12-5.5-1.1-6.5 4-10.5-2-2.9 0-5.5 0.9 1.7 2.5 3 1.5-5 2.5-10 1.5-0.5 2-2 6.7-1.1 11 0 3 2.5 6 5z"/><path fill-rule="evenodd" class="d" d="m64.5 62.5q-3-2.5-6-5-4.3-1.1-11 0 0.2-0.9 1-1.5 4-0.5 8-1 1.8-3.1 2.5 0.5 1-6 2 0 1-1.8 1.5 0-0.5 1-1 2 2.2 2.2 3 5z"/><path fill-rule="evenodd" class="e" d="m47.5 57.5q-0.5 1.5-2 2 0-2 2-2z"/><path fill-rule="evenodd" class="f" d="m38.5 61.5q0 0.5 0 1 0 1.5 0 3-2.4 0.8-5 1-1.3-4.2 0-8 2.5 0 5 0 0 1.5 0 3z"/><path fill-rule="evenodd" class="g" d="m61.5 68.5q0 3 0 6-2.7-0.8-5-2 1.1-6.5-4-10 0.7-1.8 3-2 1.5 0.3 3 0.5 3.3 3 3 7.5z"/><path fill-rule="evenodd" class="h" d="m40.5 54.5q-2.5 0.3-4 2.5 2.1 0.9 4-0.5-0.4 2.9-2 5 0-1.5 0-3-2.5 0-5 0-1.3 3.8 0 8-1.9-1.3-2-4 0.3-2 0.5-4 3.5-1.3 5.5-4.5 1.9-1.1 3 0.5z"/><path fill-rule="evenodd" class="i" d="m38.5 62.5q1.4 1.2 2 3-1 0-2 0 0-1.5 0-3z"/><path fill-rule="evenodd" class="j" d="m45.5 59.5q-1 5-2.5 10-1.6-1.3-2.5-3 2.3-3.5 5-7z"/><path fill-rule="evenodd" class="k" d="m64.5 62.5q2.4 1.2 2 4-0.5 0-1 0-0.1-1.9-2-2.5 0.8-0.6 1-1.5z"/><path fill-rule="evenodd" class="l" d="m52.5 62.5q5.1 3.5 4 10-1.9 0.1-2.5 2-1.2-2.7-3.5-4.5 0.9-3.9 2-7.5z"/><path fill-rule="evenodd" class="m" d="m52.5 66.5q1.6 0.2 2 2-0.5 1-1 2-1.4-1.8-1-4z"/><path fill-rule="evenodd" class="n" d="m64.5 66.5q2.4 5.1 2 11-1-0.5-2-1 0.5-1 1-2 0.1-2.3-2-3 0-1.5 0-3-0.3-1.5 1-2z"/><path fill-rule="evenodd" class="o" d="m64.5 66.5q0.5 0 1 0 0.5 0 1 0 1.8 1.5 2 4 0.8 4.3-2 7 0.4-5.9-2-11z"/><path fill-rule="evenodd" class="p" d="m38.5 65.5q1 0 2 0 0 0.5 0 1-2 2.6 0 5.5-5.1 4-4 10.5-0.5 1.9-1.5 0-0.3-1.5-0.5-3 1.6-4.7 4-9-0.2-1.4-1-2.5-2.3-0.3-4-1.5 2.6-0.2 5-1z"/><path fill-rule="evenodd" class="q" d="m68.5 70.5q2.1 15.9 6 0 0.9 0.2 1 1-1 3.8-3 7.5 2.3 2.7 5 0.5-0.7 4.3-4.5 2-2.7 2.7-5.5 5 2.4-4.9-1-9 2.8-2.7 2-7z"/><path fill-rule="evenodd" class="r" d="m61.5 68.5q1 0 2 0 0 1.5 0 3-0.3 2.5 2 3-0.5 1-1 2-2.3 1.1-5-0.5 2.8-0.2 2-1.5 0-3 0-6z"/><path fill-rule="evenodd" class="s" d="m63.5 71.5q2.1 0.7 2 3-2.3-0.5-2-3z"/><path fill-rule="evenodd" class="t" d="m75.5 71.5q0.9 2.3 2 4.5-1 0.5-2 1 1.9 0.6 2 2.5-2.7 2.2-5-0.5 2-3.7 3-7.5z"/><path fill-rule="evenodd" class="u" d="m75.5 71.5q2.5 1.9 4 5-0.7 1.9-2 3-0.1-1.9-2-2.5 1-0.5 2-1-1.1-2.2-2-4.5z"/><path fill-rule="evenodd" class="v" d="m56.5 78.5q2.9 2.7 7 3 0.1 1.5-1 2.5-6 2.1-8-3.5 0.4-1.8 2-2z"/><path fill-rule="evenodd" class="w" d="m70.5 79.5q1.8 1.5-0.5 3-0.7-1.6 0.5-3z"/><path fill-rule="evenodd" class="x" d="m94.5 82.5q3.9-0.4 7.5 1 1 1.5 0 3-5.5 0.1-7.5 5 2.3 1.4 5 1 1 6-5 5 0.1 11.5-1 23-3 0-6 0 0-11.5 1-23-1.5 0-3 0 0-2.5 0-5 2 0 4 0-1.4-7.1 5-10z"/><path fill-rule="evenodd" class="y" d="m56.5 78.5q-1.6 0.2-2 2 2 5.6 8 3.5 1.1-1 1-2.5 2 0.3 3.5-1-2.2 5.3-7.5 9-1.7-3.9-6-5 0.5-3.6-1-7-2.9 1.5-6 0.5 3.6-0.5 6.5-2.5 1.7 1.7 3.5 3z"/><path fill-rule="evenodd" class="z" d="m53.5 84.5q4.3 1.1 6 5-1 0.5-2 1-5.1 0.2-4-5 0-0.5 0-1z"/><path fill-rule="evenodd" class="A" d="m40.5 105.5q2.5 0 5 0 0 1.5 0 3 0.2 7.5-0.5 15-9.6 7-21.5 4.5-6.1-4.1-6.5-11.5-3.1-19 13.5-28.5 7.2-1.3 14 1.5 2.4 4.5-2.5 6-15-5.2-17 11-1 6.1 1 12 4.5 6.3 11.5 2.5 1.4-5.1 1-10.5-2.5-0.3-4.5 1-0.7-3-0.5-6 3.5 0 7 0z"/><path fill-rule="evenodd" class="B" d="m152.5 86.5q5.6-0.5 10.5 2 0.4 9.5 1.5 19-2.7 5.8-6.5 0-7.9 8.5-14-1-3.5-13.6 8.5-20z"/><path fill-rule="evenodd" class="C" d="m53.5 85.5q-1.1 5.2 4 5 0 0.5 0 1-2.5 0-5 0-0.4-3.4 1-6z"/><path fill-rule="evenodd" class="D" d="m67.5 86.5q-1.1 4.7-5 4 2.5-2 5-4z"/><path fill-rule="evenodd" class="E" d="m129.5 88.5q4.5-0.2 9 0.5 3.2 2 1 5-2.7 0.4-5.5-0.5-2.5-0.2-3.5 2 5.3 3.2 10.5 7 1.8 8.2-6.5 10.5-4.5 1-9 0-4.3-1.3-2-5 4.4 0.5 9 0 1.4-0.6 2-2-4.7-2.6-9.5-5.5-2.5-8.1 4.5-12z"/><path fill-rule="evenodd" class="F" d="m115.5 90.5q3 0 6 0-0.9 11-1.5 22-3.5 2.3-6-1-11.9 9.9-12.5-5.5 0.3-6.8 1.5-13.5 2.5-1.4 5.5-1 0 9 0 18 3.3 0.5 5.5-2 0.3-8.6 1.5-17z"/><path fill-rule="evenodd" class="G" d="m153.5 91.5q2 0 4 0 0.2 6-0.5 12-7.3 5.1-6.5-4-0.6-5 3-8z"/><path fill-rule="evenodd" class="x" d="m70.5 93.5q14-3.8 12.5 10-5.8 4.5-12.5 7 1.3 2.2 4 2 3.5-0.7 7-1 0.4 4.5-4 5.5-18.2 2.8-13.5-15.5 2-5.2 6.5-8z"/><path fill-rule="evenodd" class="B" d="m59.5 94.5q2 0 4 0 0.3 3.1-1 6-4 0.8-6.5 4-0.7 7-0.5 14-3.5 0-7 0 0.3-11 1.5-22 2.5-1.4 5.5-1-0.2 1.6 0.5 3 1.5-2.3 3.5-4z"/><path fill-rule="evenodd" class="H" d="m72.5 98.5q2.5 0 5 0 0.2 2.1-0.5 4-11.2 7.1-4.5-4z"/><path fill-rule="evenodd" class="I" d="m40.5 105.5q2.6-1.4 6-1 0.4 2.4-1 4 0-1.5 0-3-2.5 0-5 0z"/></svg>