<svg version="1.2" xmlns="http://www.w3.org/2000/svg" viewBox="0 0 297 166" width="297" height="166"><style>.a{opacity:1;fill:#fdf9fa}.b{fill:#3bb5e5}.c{fill:#cf1a2f}.d{fill:#d01d31}.e{fill:#d01e31}.f{fill:#42b7e6}.g{fill:#3cb5e5}.h{fill:#d01b30}.i{fill:#cf1b30}.j{fill:#d02032}.k{fill:#fefafb}.l{fill:#fefbfb}.m{fill:#f1b7be}.n{fill:#d01c30}.o{fill:#43b7e6}</style><path fill-rule="evenodd" class="a" d="m264.5 5.5q7.5 0 15 0 12.6 5.1 17 18 0 5.5 0 11-5.3 12.7-10 26 11.9 16.6 0 33 3 12-7.5 19-2.9 18.4-20.5 24-10.9 16.6-31 17-48.5-1.7-97-3-8.8-1.2-14 5.5-2.7 1.1-5 2.5-4 0-8 0-5.6-2.9-9-8.5-20.3-0.3-40.5-1.5-4.9 4.9-11.5 7.5-7.9 1.6-15-2-2.1-1.9-3-4.5-19.7-0.6-25-19 0-3.5 0-7 12.2-35.7 26.5-71 9.9-12.2 25-17 3-11.5 5.5-23 10-1.2 20-0.5 11.6 6 7 18.5 14.2 0.4 28-4 2.1 0.2 4 1 74.7-11 149-22z"/><path fill-rule="evenodd" class="b" d="m269.5 11.5q23 0.2 19.5 23-4.2 11.2-9 22-21.2-8.3-37.5 8-6.1-12.7-20.5-11-13.1-0.5-22 9-1.5-4-4.5-7 6.6-3.3 9.5-10 2.1-7.4-3.5-12.5-8.3-2.4-17-1-0.9 2.3-2 4.5-2.8-2.5-6-4.5-7.5-0.7-15-0.5-2.3 11.6-5 23-19.6-0.2-39 0.5 11.7-8.9 6-22.5 73.3-10 146-21z"/><path fill-rule="evenodd" class="c" d="m62.5 16.5q6.5-0.2 13 0.5 4 2.4 4 7-5.6 23.3-10.5 46.5 18.8-18.8 37.5-37.5 9.7-3.8 14.5 5.5 1.1 4.2-1 8-19.3 19.3-38.5 38.5 17.2 27.6 35.5 54.5 2.5 15-12.5 13.5-2.4-1.6-4.5-3.5-18.5-27.5-37-55-7.1 25.6-15 51-8.8 10.4-19 2-0.2-9.7 3-19 14.2-54.4 28-109 1-1.8 2.5-3z"/><path fill-rule="evenodd" class="d" d="m164.5 35.5q6.1-0.4 12 1 2.9 4.6 1.5 10-7.7 32.1-17.5 63.5-4.6 3.3-10 2-3.1-1.9-3-5.5 8.7-35.5 17-71z"/><path fill-rule="evenodd" class="e" d="m187.5 35.5q5.5-0.2 11 0.5 5.9 6.4 0 13-6.7 5.1-12.5-0.5-1.1-6.8 1.5-13z"/><path fill-rule="evenodd" class="f" d="m93.5 36.5q1.6-0.2 3 0.5-9.8 9.8-19.5 19.5 0.5-8.7 3.5-17 6.7-1.6 13-3z"/><path fill-rule="evenodd" class="g" d="m48.5 43.5q0.9 0.6 1 2-12.4 47.5-24.5 95-12.7 3.2-18-9-1-4 0-8 11.2-33.3 24-66 7-9.4 17.5-14z"/><path fill-rule="evenodd" class="h" d="m214.5 57.5q10.3-0.8 20 2.5 6 6.5 0 13-8.1 1.3-15.5-2.5-6.3 0.9-3.5 6.5 9.4 3.6 16.5 10.5 4.1 16.1-11.5 22.5-11.4 4.1-23 1-11-6-3-15 3.5-1 7 0 6.6 3.4 14 2 3-2.1 1-5-9.3-3-16.5-9.5-4.9-19.8 14.5-26z"/><path fill-rule="evenodd" class="c" d="m261.5 57.5q27.7-1.6 25.5 26-1.2 3.1-3.5 5.5-15.5 0.5-31 1-2.2 6.2 4 9 4.5 1 9 0 6-3.4 12.5-5.5 4.6 0.4 4.5 5-1.5 7.7-9 10.5-15.9 7.3-31-1-2.4-3.1-4.5-6.5-6.7-32 23.5-44z"/><path fill-rule="evenodd" class="i" d="m121.5 58.5q15.5-0.2 31 0.5-6.4 24.8-13.5 49.5-7.4 7.8-14.5 0-12.1 8.2-24-0.5-14-29.5 14-47 3.6-1.4 7-2.5z"/><path fill-rule="evenodd" class="j" d="m181.5 58.5q5.5-0.2 11 0.5 3 1.5 3 5-4.8 20.2-9.5 40.5-4.1 11.2-14.5 6-0.9-2.7-1-5.5 4.9-23.4 11-46.5z"/><path fill-rule="evenodd" class="k" d="m272.5 75.5q0 1.5 0 3-8.8 0.5-17-1 4.2-9 14-6.5 2.5 1.7 3 4.5z"/><path fill-rule="evenodd" class="l" d="m120.5 72.5q6.5 0 13 0-1.4 10.9-5.5 21-7.7 9.2-16 1-3.6-14.2 8.5-22z"/><path fill-rule="evenodd" class="m" d="m272.5 75.5q1.4 1.6 1 4-9.6 0.5-19-1 0.2-0.9 1-1 8.2 1.5 17 1 0-1.5 0-3z"/><path fill-rule="evenodd" class="b" d="m64.5 104.5q13.2 18.5 26 37.5-18 0.8-36 0.5 4.1-19.3 10-38z"/><path fill-rule="evenodd" class="n" d="m187.5 115.5q40.6-0.7 81 3 2 0.5 4 1-4.9 10.1-16 11.5-31-0.6-62-1.5-36.6 0.2-73 4-2.4-0.1-4.5-1-2.2-3.9-3.5-8 37-6.1 74-9z"/><path fill-rule="evenodd" class="o" d="m163.5 133.5q43.1-0.7 86 3-4.9 5.7-12 8.5-9.7 1.6-19.5 1.5-48.2-1.6-96.5-2 0.3-3.1-1-6 1-0.5 2-1 20.7-2.4 41-4z"/></svg>