<svg version="1.2" xmlns="http://www.w3.org/2000/svg" viewBox="0 0 1921 539" width="1921" height="539"><style>.a{fill:#e51e2b}</style><path class="a" d="m346.4 415.7c-26-5.7-46.3-18.1-68.4-40.4-24.2-24.6-110.9-127.1-110.9-127.1l138.2-131.2h-74.7l-126.2 123.4c-5.5 5.4-8.8 8.9-11.6 12.4h-0.7c0.2-4.2 0.4-8.5 0.4-12.8v-98.6c0-13.5-10.9-24.4-24.4-24.4h-48.9-16.5c-3.1 0-3.5 3.3-1.2 4.4 9.9 4.6 17.7 9.9 17.7 27.6v269.5h73.3v-138.9c0-3.5-0.2-6.3-0.4-10.3h0.7c2.5 4.1 6.9 8.8 11.6 14.5 0 0 77 90.6 85.2 99.1 32.6 34.2 78.3 46.2 156.4 38.7 4.3-0.4 4.3-5 0.4-5.9z"/><path fill-rule="evenodd" class="a" d="m665.4 267.8c0 90.9-75 161.7-176.7 161.7-107.6 0-176.7-70.8-176.7-161.7 0-91 75-161.8 176.7-161.8 107.6 0 176.7 70.8 176.7 161.8zm-81.4-3.9c0-67.8-34.7-127.1-95.3-127.1-60.7 0-95.3 56.8-95.3 134.8 0 67.8 34.6 127.1 95.3 127.1 60.6 0 95.3-54.7 95.3-134.8z"/><path class="a" d="m1785.6 418.5l-45-275.1c-2.3-13.8-15-26.4-30.8-26.4h-42.2l-74 171.6c-3.4 7.8-5.6 13.8-7.2 18.3h-0.4c-1.5-4.8-3.6-10.4-6.6-17.3l-65.3-153.1c-4.7-10.9-15.6-19.5-29.3-19.5h-64.7c-3.2 0-3.5 3.3-1.2 4.4 8.9 4 15.2 10.4 12.5 27.4l-44.3 269.7h46.7l29.5-190.2c1.4-9.8 3.1-21.6 3.6-27.6h0.4c2.9 7.9 6.6 17.3 10.9 27l81.2 190.8h24.2l82.2-194.2c4.8-11.5 7.9-19.6 10.1-25.8h0.4c0.9 7.4 2.4 18.8 4.1 30.2l30.5 189.8z"/><path class="a" d="m1896.4 117h-68.4c-3.2 0-3.5 3.3-1.2 4.4 10 4.6 17.7 9.9 17.7 27.6v269.5h76.3v-277.1c0-13.5-10.9-24.4-24.4-24.4z"/><path class="a" d="m957.6 117v172.4c0 8.4 0.4 13.7 0.7 21.3h-0.7c-5.8-8.2-12.3-16.6-21.8-27.7l-129.6-149.9c-10.1-11.6-18.3-16.1-36.9-16.1h-65.8c-3.1 0-3.5 3.3-1.1 4.4 9.9 4.6 17.7 9.9 17.7 27.6v269.5h49.2v-193.8c0-10.5-0.4-18.5-0.7-27.1h0.7c9.1 12.2 21.7 28.4 31.8 40.1l155.5 180.8h25.9c13.5 0 24.4-10.9 24.4-24.4v-277.1z"/><path fill-rule="evenodd" class="a" d="m1254 349.1h-136.8l-31.5 69.4h-56l126.7-271.1c5.1-10.9 0.2-22.5-6.8-26-2.3-1.1-2-4.4 1.2-4.4h57.3c13.5 0 23.9 8.4 28.7 18.6l131 282.9h-83zm-16.2-36.5l-46-103.7c-2.1-5.1-4.1-9.7-5-12.7h-0.8c-0.7 2.6-2.8 7.3-5.1 12.5l-47.2 103.9z"/></svg>