<svg version="1.2" xmlns="http://www.w3.org/2000/svg" viewBox="0 0 114 38" width="114" height="38"><style>.a{fill:#ee2633}</style><path fill-rule="evenodd" class="a" d="m113.4 18.2c0 7.8-6 14.1-14.8 14.1h-83.8c-8.9 0-14.8-6.3-14.8-14.1 0-7.8 6-14.2 14.8-14.2h83.8c8.8 0 14.8 6.4 14.8 14.2zm-3.5 0c0-5.9-4.3-10.7-11.4-10.7h-83.6c-7.1 0-11.4 4.8-11.4 10.7 0 5.9 4.3 10.7 11.4 10.7h83.6c7.1 0 11.4-4.8 11.4-10.7zm-82.6-2.3l4 0.1v8.8h-4zm0-4.4h4v2.7h-4zm75.1 8.8c0 2.8-2.6 5-5.8 5-3.2 0-5.7-2.2-5.7-5 0-2.7 2.5-4.9 5.7-4.9 3.2 0 5.8 2.2 5.8 4.9zm-4.2 0c0-0.3 0-1.3 0-1.9 0-1.4-0.8-2-1.6-2-0.8 0-1.6 0.6-1.6 2v1.9 1.9c0 1.4 0.8 2 1.6 2 0.8 0 1.6-0.6 1.6-2 0-0.5 0-1.9 0-1.9zm-12.5-8.8h3.9v13.3h-3.9v-0.5c-1.6 1-3.3 1-4.6 0.4-1.7-0.9-2.7-2.6-2.7-4.4 0-2.4 2.2-4.9 5-4.7 1 0.1 1.6 0.4 2.3 0.8zm0 7.3c0-1.4-0.9-1.7-1.6-1.7-0.6 0-1.5 0.3-1.5 1.7v3.1c0 1.4 0.9 1.8 1.5 1.8 0.7 0 1.6-0.4 1.6-1.8v-1.5zm-40.7 1.2c0 0.6 0 4.8 0 4.8h-3.9v-5.8c0-0.8-0.8-1.6-1.8-1.6-1.1 0-1.9 0.8-1.9 1.6v5.8h-3.9v-8.8l3.9-0.1c0 0 0 0.8 0 1 0.8-0.8 2-1.3 3.2-1.4 1.4 0 4.4 1 4.4 4.5zm32.1 0c0 0.6 0 4.8 0 4.8h-3.9v-5.8c0-0.8-0.7-1.6-1.8-1.6-1.1 0-1.9 0.8-1.9 1.6v5.8h-3.9v-8.8l3.9-0.1c0 0 0 0.8 0 1 0.9-0.8 2-1.3 3.2-1.4 1.5 0 4.5 1 4.4 4.5zm-20.1 0.4c0 0 0 1.4 0 1.9 0 1.6 1 1.9 1.6 1.9 0.6 0 1.7-0.3 1.7-1.9 0-0.5-0.1-0.6-0.1-0.6h4c-0.7 2.1-3 3.7-5.6 3.7-3.2 0-5.8-2.3-5.8-5 0-2.8 2.6-5 5.8-5 3.2 0 5.8 2.3 5.8 5 0 0-7.4 0-7.4 0zm0-1.4h3.3c0-0.7 0-1.2-0.3-1.7-0.3-0.5-0.8-0.8-1.4-0.8-0.5 0-1.1 0.3-1.4 0.8-0.2 0.5-0.2 1-0.2 1.7zm48-5.4c0 1.2-0.9 2.1-2 2.1-1.1 0-2-0.9-2-2.1 0-1.1 0.9-2 2-2 1.1 0 2 0.9 2 2zm-0.4 0c0-0.9-0.7-1.6-1.6-1.6-0.9 0-1.7 0.7-1.7 1.6 0 1 0.8 1.7 1.7 1.7 0.9 0 1.6-0.7 1.6-1.7zm-1.1 0.1l0.5 1.1h-0.6l-0.4-1h-0.3v1h-0.5v-2.3h0.8q1 0 1 0.6c0 0.3-0.2 0.6-0.5 0.6zm-0.1-0.5q0-0.4-0.5-0.4h-0.2v0.7h0.3q0.4 0 0.4-0.3zm-82.4-1.7h4.1v13.3h-4.1l-5.7-9.3v9.3h-4v-13.3h4l5.7 9.3zm30.1 4.5v8.8h-3.9v-8.8h-2.2v-1.3h2.2v-1.8h3.9v1.8h2.2v1.3z"/></svg>