<svg version="1.2" xmlns="http://www.w3.org/2000/svg" viewBox="0 0 114 48" width="114" height="48"><defs><clipPath clipPathUnits="userSpaceOnUse" id="cp1"><path d="m34.98 16.58v19.41c0.23 5.18-6.68 8.32-11.48 9.31-2.07 0.43-6.59-0.6-8.47-1.7l-13.96-7.2c-0.37-0.24-1.07-0.67-1.07-2.16v-20.31c0-2.83 2.63-0.55 4.69 0.24l10.65 5.17c1.72 0.98 5.33 1.55 7.1 1.6 7.07 0.22 12.54-4.36 12.54-4.36z"/></clipPath><linearGradient id="P" gradientUnits="userSpaceOnUse"/><linearGradient id="g1" x2="1" href="#P" gradientTransform="matrix(-34.984,0,0,-32.85,34.984,48.394)"><stop stop-color="#f2841a"/><stop offset="1" stop-color="#ef4a27"/></linearGradient><clipPath clipPathUnits="userSpaceOnUse" id="cp2"><path d="m0 45.4h113.33v-39.33h-113.33z"/></clipPath><clipPath clipPathUnits="userSpaceOnUse" id="cp3"><path d="m16.63 14.29c1.49 0.84 4.68 1.87 5.89 1.9h0.08c1.61 0 4.32-0.96 7.07-2.24 0.48-0.3 1.22-1.04-0.59-1.97-3.18-1.63-8.7-4.34-8.7-4.34-2.06-0.8-4.69-3.1-4.69-0.27v6.46z"/></clipPath><linearGradient id="g2" x2="1" href="#P" gradientTransform="matrix(-14.543,0,0,-10.048,30.234,18.856)"><stop stop-color="#f2841a"/><stop offset="1" stop-color="#ef4a27"/></linearGradient></defs><style>.a{fill:url(#g1)}.b{fill:#f25b2b}.c{fill:#24211f}.d{fill:url(#g2)}</style><g clip-path="url(#cp1)"><path class="a" d="m35 16.6v19.4c0.2 5.2-6.7 8.3-11.5 9.3-2.1 0.4-6.6-0.6-8.5-1.7l-13.9-7.2c-0.4-0.2-1.1-0.7-1.1-2.2v-20.3c0-2.8 2.6-0.5 4.7 0.3l10.6 5.1c1.8 1 5.4 1.6 7.1 1.6 7.1 0.3 12.6-4.3 12.6-4.3z"/></g><path class="b" d="m55.7 28.9h15.3v4.7h-15.3z"/><path fill-rule="evenodd" class="c" d="m77.4 15.9v5.5c0 2.1-1.7 3.8-3.8 3.8h-22.6v8.5h-7.1v-21.6h29.7c2.1 0 3.8 1.7 3.8 3.8zm-6.4 2.2c0-1-0.8-1.9-1.9-1.9h-18.1q0 0 0 0.1v4.7h18.1c1.1 0 1.9-0.8 1.9-1.8zm34.7 0.9v-2.6h-17.6c-1 0-1.8 0.8-1.8 1.9v8.6c0 1 0.8 1.9 1.9 1.9h17.5v-2.7h7v2.7c-0.1 2.5-2.3 4.5-4.8 4.5h-23.7c-2.7 0-4.9-2.1-4.9-4.8v-11.8c0-2.7 2.2-4.9 4.9-4.9h23.7c2.5 0 4.6 2 4.8 4.5v2.7z"/><path fill-rule="evenodd" class="c" d="m47.4 39.7v-0.4q0-0.3-0.1-0.5-0.1-0.1-0.2-0.2-0.2-0.1-0.5-0.1-0.2 0-0.7 0-0.4 0-0.7 0-0.3 0.1-0.5 0.2-0.2 0.2-0.2 0.5-0.1 0.3-0.1 0.8v1.5q0 0.5 0.1 0.8 0 0.3 0.2 0.5 0.2 0.2 0.5 0.2 0.3 0.1 0.8 0.1 0.3 0 0.6 0 0.3-0.1 0.5-0.1 0.2-0.1 0.3-0.3 0.1-0.2 0.1-0.6v-0.4h1.2v0.5q0.1 0.7-0.1 1.1-0.2 0.4-0.6 0.6-0.4 0.2-0.9 0.2-0.5 0.1-1.1 0.1-0.9 0-1.5-0.1-0.5-0.1-0.8-0.4-0.3-0.4-0.4-0.9-0.1-0.5-0.1-1.2v-1.6q0-0.8 0.1-1.3 0.2-0.5 0.5-0.8 0.4-0.3 0.9-0.4 0.5-0.1 1.3-0.1 0.6 0 1.1 0 0.5 0.1 0.8 0.3 0.4 0.1 0.6 0.5 0.2 0.4 0.2 1.1v0.4h-1.3zm6.1-2.2q0.5 0.1 0.9 0.3 0.3 0.3 0.5 0.8 0.2 0.5 0.2 1.3v1.8q0 0.8-0.2 1.3-0.2 0.5-0.5 0.7-0.4 0.3-0.9 0.4-0.5 0.1-1.3 0.1-0.8 0-1.3-0.1-0.6-0.1-0.9-0.3-0.3-0.3-0.5-0.8-0.1-0.5-0.1-1.3v-1.8q0-0.8 0.1-1.3 0.1-0.5 0.5-0.8 0.3-0.2 0.9-0.3 0.5-0.1 1.3-0.1 0.7 0 1.2 0.1zm-2 1.1q-0.3 0-0.5 0.2-0.2 0.1-0.2 0.4-0.1 0.2-0.1 0.6v1.8q0 0.5 0.1 0.8 0.1 0.3 0.2 0.5 0.2 0.1 0.5 0.2 0.3 0 0.8 0 0.4 0 0.7 0 0.3-0.1 0.5-0.2 0.2-0.2 0.3-0.5 0-0.3 0-0.7v-1.8q0-0.5 0-0.8-0.1-0.2-0.3-0.4-0.2-0.1-0.5-0.2-0.3 0-0.8 0-0.5 0-0.8 0.1zm9.1 5.6h-1.1l-2.2-5.6 0.1 5.6h-1.3v-6.7h2.1l1.8 4.9 1.8-4.9h2.1v6.7h-1.3l0.2-5.7h-0.1l-2.1 5.7zm4.4-6.7h3q0.6 0 1.1 0.1 0.5 0.1 0.7 0.3 0.3 0.3 0.4 0.7 0.1 0.5 0.1 1.2 0 0.7-0.1 1.1-0.1 0.5-0.4 0.7-0.3 0.2-0.7 0.3-0.5 0.1-1.1 0.1h-1.7v2.2h-1.3zm3 3.4q0.3 0 0.5-0.1 0.2 0 0.4-0.1 0.1-0.1 0.1-0.4 0.1-0.2 0.1-0.5 0-0.4-0.1-0.6 0-0.2-0.1-0.4-0.1-0.1-0.4-0.2-0.2 0-0.5 0h-1.7v2.3h1.7zm7-3.4q0.6 0.1 0.9 0.3 0.4 0.3 0.6 0.8 0.1 0.5 0.1 1.3v1.8q0 0.8-0.1 1.3-0.2 0.5-0.5 0.7-0.4 0.3-0.9 0.4-0.6 0.1-1.3 0.1-0.8 0-1.3-0.1-0.6-0.1-0.9-0.3-0.3-0.3-0.5-0.8-0.1-0.5-0.1-1.3v-1.8q0-0.8 0.1-1.3 0.2-0.5 0.5-0.7 0.3-0.3 0.9-0.4 0.5-0.1 1.3-0.1 0.7 0 1.3 0.1zm-2.1 1.1q-0.3 0-0.5 0.2-0.1 0.1-0.2 0.4 0 0.3-0.1 0.7v1.8q0.1 0.5 0.1 0.7 0.1 0.3 0.2 0.5 0.2 0.1 0.5 0.2 0.3 0 0.8 0 0.4 0 0.7 0 0.3-0.1 0.5-0.2 0.2-0.2 0.3-0.5 0.1-0.2 0-0.7v-1.8q0.1-0.5 0-0.8-0.1-0.2-0.3-0.4-0.2-0.1-0.5-0.1-0.3-0.1-0.7-0.1-0.5 0-0.8 0.1zm10.7-1.1v6.7h-2.1l-2.8-5.6h-0.1l0.1 5.6h-1.3v-6.7h2.2l2.8 5.6h0.1l-0.2-5.6zm2.4 2.8h3.1v1h-3.1v1.8h3.3v1.1h-4.6v-6.7h4.6v1.1h-3.3v1.6zm10.5-2.7v6.7h-2.1l-2.9-5.6 0.1 5.6h-1.3v-6.7h2.1l2.9 5.6-0.1-5.6zm2.5 6.7v-5.6h-1.9v-1.1h5.2v1.1h-2v5.6zm5-4h3.2v1.1h-3.2v1.8h3.4v1.1h-4.7v-6.7h4.6v1.1h-3.3v1.6zm5.3 1.8v0.3q0 0.3 0.1 0.5 0.1 0.2 0.2 0.2 0.2 0.1 0.5 0.1 0.3 0.1 0.7 0.1 0.5 0 0.7-0.1 0.3 0 0.4-0.2 0.2-0.1 0.2-0.3 0-0.1 0-0.4 0-0.4 0-0.6-0.2-0.1-0.3-0.2-0.2-0.1-0.5-0.1h-0.7q-0.5-0.1-1-0.1-0.5-0.1-0.8-0.2-0.4-0.2-0.5-0.6-0.3-0.4-0.3-1.1 0-0.7 0.3-1.1 0.2-0.4 0.5-0.6 0.4-0.1 0.9-0.2 0.5 0 1.1 0 0.5 0 1 0 0.4 0.1 0.8 0.2 0.3 0.2 0.5 0.6 0.2 0.3 0.2 1v0.2h-1.3v-0.2q0-0.3 0-0.4-0.1-0.2-0.2-0.3-0.2 0-0.4-0.1-0.2 0-0.6 0-0.4 0-0.7 0.1-0.3 0-0.5 0.1-0.1 0.1-0.2 0.2 0 0.2 0 0.5 0 0.3 0 0.5 0 0.1 0.2 0.2 0.1 0.1 0.4 0.1 0.3 0.1 0.8 0.1 0.8 0 1.3 0.1 0.5 0.1 0.8 0.3 0.3 0.2 0.4 0.5 0.1 0.4 0.1 1 0 0.7-0.1 1.1-0.2 0.4-0.5 0.6-0.3 0.3-0.8 0.3-0.5 0.1-1.2 0.1-0.5 0-1-0.1-0.5 0-0.9-0.2-0.4-0.1-0.6-0.5-0.3-0.4-0.3-1.1v-0.3h1.3z"/><g clip-path="url(#cp2)"><g clip-path="url(#cp3)"><path class="d" d="m21.6 16.2v-0.1h-0.7v-0.2h-0.5v-0.1h-0.4v-0.1h-0.4v-0.2h-0.4v-0.1h-0.4v-0.1h-0.4v-0.2h-0.3v-0.1h-0.4v-0.1h-0.2v-0.2h-0.3v-0.1h-0.3v-0.1h-0.2v-0.2h-0.3v-0.1h-0.3v-0.1h-0.2v-0.2h-0.3v-7h0.1v-0.6h0.2v-0.1h0.1v-0.1h1.5v0.1h0.2v0.1h0.4v0.2h0.3v0.1h0.1v0.1h0.3v0.2h0.3v0.1h0.2v0.1h0.3v0.2h0.3v0.1h0.2v0.1h0.4v0.2h0.3v0.1h0.3v0.1h0.2v0.2h0.3v0.1h0.3v0.1h0.2v0.2h0.3v0.1h0.3v0.1h0.2v0.2h0.3v0.1h0.3v0.1h0.2v0.2h0.3v0.1h0.3v0.1h0.2v0.2h0.3v0.1h0.3v0.1h0.2v0.2h0.3v0.1h0.3v0.1h0.2v0.2h0.3v0.1h0.3v0.1h0.2v0.2h0.3v0.1h0.3v0.1h0.2v0.2h0.3v0.1h0.3v0.1h0.2v0.2h0.3v0.1h0.3v0.1h0.2v0.2h0.2v0.1h0.2v0.1h0.2v0.2h0.1v0.1h0.1v0.1h0.2v0.8h-0.2v0.3h-0.1v0.1h-0.3v0.2h-0.2v0.1h-0.3v0.1h-0.3v0.2h-0.4v0.1h-0.2v0.1h-0.3v0.2h-0.4v0.1h-0.3v0.1h-0.4v0.2h-0.4v0.1h-0.4v0.1h-0.2v0.2h-0.6v0.1h-0.4v0.1h-0.5v0.2h-0.7v0.1"/></g></g></svg>