<svg version="1.2" xmlns="http://www.w3.org/2000/svg" viewBox="0 0 114 35" width="114" height="35"><style>.a{fill:#231f20}</style><path fill-rule="evenodd" class="a" d="m40.4 27c-4.1 0-7.9-1.3-10.5-3.6-1.9-1.7-2.8-4-2.8-6.4 0-2.4 0.9-4.8 2.8-6.5 2.4-2.2 6.6-3.5 10.5-3.5 4.3 0 7.8 1.1 10.5 3.5 1.9 1.7 2.8 4.1 2.8 6.5 0 2.3-1 4.7-2.8 6.4-2.5 2.3-6.4 3.6-10.5 3.6v-2.7c2.2 0 4.2-0.7 5.6-2.1 1.4-1.4 2.1-3.1 2.1-5.2 0-2-0.7-3.9-2.1-5.3-1.4-1.3-3.5-2.1-5.6-2.1-2.2 0-4.2 0.8-5.6 2.1-1.4 1.4-2.1 3.3-2.1 5.3 0 2 0.7 3.8 2.1 5.2 1.4 1.4 3.4 2.1 5.6 2.1zm-21.9-18.1c0.5 0.3 0.7 0 0.7-0.2v-0.8h2.5v6.1h-2.2c-0.3-1.1-0.9-1.9-1.4-2.3-0.4-0.3-1-0.6-1.4-0.8-1.4-0.6-3.5-1.2-5.9-1.2-2.1 0-4.1 0.4-5.1 1q-1 0.6-1 1.5c0 0.8 0.7 1.1 1.1 1.2 1.1 0.4 3.9 0.6 5.5 0.8 1.6 0.1 4.8 0.6 6.2 0.9 0.8 0.2 1.6 0.5 2.2 0.8q1.1 0.5 1.8 1.2c0.4 0.4 1.5 1.6 1.5 3.6 0 2.1-1.3 3.2-1.8 3.7-1.1 0.8-2.3 1.4-3.4 1.6-1.1 0.4-2.7 0.8-5.6 0.8-1.8 0-2.8-0.2-4.2-0.5-1.8-0.4-3.5-1-4.1-1.3-0.4-0.2-0.6 0.2-0.6 0.3v1h-2.7v-7h2.4c0 0.8 0.4 1.7 0.7 2 1 1.2 2.1 1.7 3.1 2.1 0.9 0.3 3.3 0.9 5.4 0.9 2.7 0 4.3-0.7 4.5-0.8 0.2-0.1 1.5-0.5 1.5-1.9 0-1.3-1.2-1.6-2-1.8-0.9-0.2-3.1-0.4-5.4-0.7-2.2-0.2-4.5-0.6-5.6-0.8-2.4-0.5-3.3-1.4-3.9-1.9 0 0-1.3-1.2-1.3-3.3 0-2.4 1.6-3.8 3.6-4.7 2.1-0.9 4.6-1.3 6.8-1.3 3.8 0 7 1.2 8.1 1.8zm46.6-0.7l12.2 11-0.1-7.4c0-1-0.2-1.4-1.2-1.4h-2.3v-2.2h10.4v2.2h-2.2c-1.1 0-1.2 0.3-1.2 1.4l0.2 14.1h-3.6l-14-12.5v8.9c0 1 0 1.4 1 1.4h2.5v2.2h-10.2v-2.2h2.4c0.9 0 0.9-0.8 0.9-1.5v-10.3c0-0.7-0.1-1.5-1.5-1.5h-2v-2.2zm31.5 15.5c0.2-0.1 0.4-0.3 0.5-0.5v-3.9c0-0.1 0-0.2-0.1-0.3-0.2-0.3-6.4-7.3-6.7-7.6-0.3-0.4-1-1-1.9-1h-2.2v-2.2h12.3v2.2h-1.5c-0.4 0-0.6 0.3-0.3 0.7 0 0 4.1 4.9 4.2 4.9q0 0.1 0.1 0.1c0-0.1 4.2-5 4.2-5 0.2-0.3 0.1-0.7-0.3-0.7h-1.6v-2.2h10.1v2.2h-2.3c-0.8 0-1.1 0.1-1.7 0.8-0.3 0.4-6.6 7.5-6.8 7.7-0.1 0.1-0.1 0.3-0.1 0.4v3.5l0.1 0.4c0.1 0.2 0.2 0.4 0.5 0.5 0.1 0 0.5 0 0.6 0h2.3v2.2h-12.2v-2.2c0.1 0 2.7 0 2.8 0z"/></svg>