<svg version="1.2" xmlns="http://www.w3.org/2000/svg" viewBox="0 0 115 32" width="115" height="32"><style>.a{fill:#ed1c24}</style><path fill-rule="evenodd" class="a" d="m108.6 19.9h-5.5l-0.9 3.1h-4.9l5.1-16.7h7l5 16.7h-4.9m-2-6.8l-1.6-5.8-1.7 5.8z"/><path fill-rule="evenodd" class="a" d="m17.6 17.9q0-1.6 0-3.3c0-1 0-2.1 0-3.2 0.4-4.5 2.8-5.4 7.8-5.4 5.1 0 7.5 0.9 7.9 5.4 0 1.1 0.1 2.2 0.1 3.2 0 1.1-0.1 2.2-0.1 3.3-0.4 4.5-2.8 5.4-7.9 5.4-5 0-7.4-0.9-7.8-5.4zm4.7-1.4c0.2 2.6 1.2 2.9 3.1 2.9 2 0 3.1-0.3 3.2-2.9 0-0.4 0-0.9 0-1.9 0-0.9 0-1.4 0-1.8-0.1-2.6-1.2-2.9-3.2-2.9-1.9 0-2.9 0.3-3.1 2.9 0 0.4 0 0.9 0 1.8 0 1 0 1.5 0 1.9z"/><path fill-rule="evenodd" class="a" d="m1 6.3v4.2h5v12.5h5v-12.5h5v-4.2z"/><path class="a" d="m77.5 23h-4.7v-16.7h4.7z"/><path class="a" d="m77.5 23h-4.7v-16.7h4.7z"/><path class="a" d="m77.5 23h-4.7v-16.7h4.7z"/><path fill-rule="evenodd" class="a" d="m58.5 12.4v-6.1h-4.7v16.7h4.7v-6.4h5.5v6.4h4.7v-16.7h-4.7v6.1z"/><path fill-rule="evenodd" class="a" d="m96.1 18.5c0 2.7-1.4 4.5-5.5 4.5h-8.9v-16.7h8.5c3.3 0 5.6 0.7 5.6 4.4 0 1.8-0.6 3-2.7 3.6 2.6 0.6 3 2.3 3 4.2zm-9.7 0.7h3.3c1.1 0 1.6-0.6 1.6-1.6 0-0.9-0.3-1.5-1.6-1.5h-3.3zm0-6.3h3.3c0.8 0 1.4-0.5 1.4-1.3 0-1-0.6-1.4-1.4-1.4h-3.3z"/><path fill-rule="evenodd" class="a" d="m96.1 18.5c0 2.7-1.4 4.5-5.5 4.5h-8.9v-16.7h8.5c3.3 0 5.6 0.7 5.6 4.4 0 1.8-0.6 3-2.7 3.6 2.6 0.6 3 2.3 3 4.2zm-9.7 0.7h3.3c1.1 0 1.6-0.6 1.6-1.6 0-0.9-0.3-1.5-1.6-1.5h-3.3zm0-6.3h3.3c0.8 0 1.4-0.5 1.4-1.3 0-1-0.6-1.4-1.4-1.4h-3.3z"/><path class="a" d="m36.1 17.5h4.5c0 0.8 0.1 1.4 0.5 1.7 0.4 0.3 0.8 0.4 2.2 0.4 1.2 0 2.6 0 2.6-1.6 0-1.2-0.8-1.5-2.2-1.6-3.6-0.2-4.9-0.3-6.2-1.2-0.9-0.7-1.4-2-1.4-3.8 0-3 1.1-4.1 2.6-4.8 1.6-0.8 7.7-0.8 9.4 0 2.1 0.9 2.1 3 2.1 4.9h-4.4c-0.1-0.9-0.3-1.2-0.5-1.4-0.4-0.4-1.1-0.5-2-0.5-1.2 0-2.5 0-2.5 1.4 0 1.1 0.4 1.6 1.6 1.7 1.7 0 5 0.2 6.2 0.9 1.6 0.9 2 2.3 2 4.4 0 3.1-1.1 4-2.6 4.7-1.8 0.8-7.7 0.8-9.7-0.1-2.2-0.9-2.2-2.8-2.2-5.1z"/></svg>